{
 "cells": [
  {
   "cell_type": "code",
   "execution_count": 1,
   "metadata": {},
   "outputs": [
    {
     "name": "stderr",
     "output_type": "stream",
     "text": [
      "ffmpeg version 4.4.2-0ubuntu0.22.04.1 Copyright (c) 2000-2021 the FFmpeg developers\n",
      "  built with gcc 11 (Ubuntu 11.2.0-19ubuntu1)\n",
      "  configuration: --prefix=/usr --extra-version=0ubuntu0.22.04.1 --toolchain=hardened --libdir=/usr/lib/x86_64-linux-gnu --incdir=/usr/include/x86_64-linux-gnu --arch=amd64 --enable-gpl --disable-stripping --enable-gnutls --enable-ladspa --enable-libaom --enable-libass --enable-libbluray --enable-libbs2b --enable-libcaca --enable-libcdio --enable-libcodec2 --enable-libdav1d --enable-libflite --enable-libfontconfig --enable-libfreetype --enable-libfribidi --enable-libgme --enable-libgsm --enable-libjack --enable-libmp3lame --enable-libmysofa --enable-libopenjpeg --enable-libopenmpt --enable-libopus --enable-libpulse --enable-librabbitmq --enable-librubberband --enable-libshine --enable-libsnappy --enable-libsoxr --enable-libspeex --enable-libsrt --enable-libssh --enable-libtheora --enable-libtwolame --enable-libvidstab --enable-libvorbis --enable-libvpx --enable-libwebp --enable-libx265 --enable-libxml2 --enable-libxvid --enable-libzimg --enable-libzmq --enable-libzvbi --enable-lv2 --enable-omx --enable-openal --enable-opencl --enable-opengl --enable-sdl2 --enable-pocketsphinx --enable-librsvg --enable-libmfx --enable-libdc1394 --enable-libdrm --enable-libiec61883 --enable-chromaprint --enable-frei0r --enable-libx264 --enable-shared\n",
      "  libavutil      56. 70.100 / 56. 70.100\n",
      "  libavcodec     58.134.100 / 58.134.100\n",
      "  libavformat    58. 76.100 / 58. 76.100\n",
      "  libavdevice    58. 13.100 / 58. 13.100\n",
      "  libavfilter     7.110.100 /  7.110.100\n",
      "  libswscale      5.  9.100 /  5.  9.100\n",
      "  libswresample   3.  9.100 /  3.  9.100\n",
      "  libpostproc    55.  9.100 / 55.  9.100\n",
      "Input #0, image2, from '/home/priyam/UTN/Cloud_Database/Project/robotics_dataset_compression/datasets/droid_100_sample_pictures/idx_%d.png':\n",
      "  Duration: 00:00:05.53, start: 0.000000, bitrate: N/A\n",
      "  Stream #0:0: Video: png, rgb24(pc), 320x180, 30 fps, 30 tbr, 30 tbn, 30 tbc\n",
      "Stream mapping:\n",
      "  Stream #0:0 -> #0:0 (png (native) -> h264 (libx264))\n",
      "Press [q] to stop, [?] for help\n",
      "[libx264 @ 0x5c08ddbfbd40] using cpu capabilities: MMX2 SSE2Fast SSSE3 SSE4.2 AVX FMA3 BMI2 AVX2\n",
      "[libx264 @ 0x5c08ddbfbd40] profile High 4:4:4 Predictive, level 1.3, 4:4:4, 8-bit\n",
      "[libx264 @ 0x5c08ddbfbd40] 264 - core 163 r3060 5db6aa6 - H.264/MPEG-4 AVC codec - Copyleft 2003-2021 - http://www.videolan.org/x264.html - options: cabac=0 ref=1 deblock=0:0:0 analyse=0:0 me=dia subme=0 psy=0 mixed_ref=0 me_range=16 chroma_me=1 trellis=0 8x8dct=0 cqm=0 deadzone=21,11 fast_pskip=0 chroma_qp_offset=0 threads=6 lookahead_threads=1 sliced_threads=0 nr=0 decimate=1 interlaced=0 bluray_compat=0 constrained_intra=0 bframes=0 weightp=0 keyint=250 keyint_min=25 scenecut=0 intra_refresh=0 rc=cqp mbtree=0 qp=0\n",
      "Output #0, matroska, to './temp/output_lossless_h264_fast.mkv':\n",
      "  Metadata:\n",
      "    encoder         : Lavf58.76.100\n",
      "  Stream #0:0: Video: h264 (H264 / 0x34363248), yuv444p(tv, progressive), 320x180, q=2-31, 30 fps, 1k tbn\n",
      "    Metadata:\n",
      "      encoder         : Lavc58.134.100 libx264\n",
      "    Side data:\n",
      "      cpb: bitrate max/min/avg: 0/0/0 buffer size: 0 vbv_delay: N/A\n",
      "frame=  166 fps=0.0 q=-1.0 Lsize=    7775kB time=00:00:05.50 bitrate=11578.9kbits/s speed=25.3x    \n",
      "video:7773kB audio:0kB subtitle:0kB other streams:0kB global headers:0kB muxing overhead: 0.025163%\n",
      "[libx264 @ 0x5c08ddbfbd40] frame I:1     Avg QP: 0.00  size: 68364\n",
      "[libx264 @ 0x5c08ddbfbd40] frame P:165   Avg QP: 0.00  size: 47825\n",
      "[libx264 @ 0x5c08ddbfbd40] mb I  I16..4: 100.0%  0.0%  0.0%\n",
      "[libx264 @ 0x5c08ddbfbd40] mb P  I16..4:  6.8%  0.0%  0.0%  P16..4: 93.1%  0.0%  0.0%  0.0%  0.0%    skip: 0.1%\n",
      "[libx264 @ 0x5c08ddbfbd40] coded y,u,v intra: 70.4% 56.0% 56.5% inter: 98.9% 89.9% 86.0%\n",
      "[libx264 @ 0x5c08ddbfbd40] i16 v,h,dc,p: 72% 28%  0%  0%\n",
      "[libx264 @ 0x5c08ddbfbd40] kb/s:11507.60\n",
      "ffmpeg version 4.4.2-0ubuntu0.22.04.1 Copyright (c) 2000-2021 the FFmpeg developers\n",
      "  built with gcc 11 (Ubuntu 11.2.0-19ubuntu1)\n",
      "  configuration: --prefix=/usr --extra-version=0ubuntu0.22.04.1 --toolchain=hardened --libdir=/usr/lib/x86_64-linux-gnu --incdir=/usr/include/x86_64-linux-gnu --arch=amd64 --enable-gpl --disable-stripping --enable-gnutls --enable-ladspa --enable-libaom --enable-libass --enable-libbluray --enable-libbs2b --enable-libcaca --enable-libcdio --enable-libcodec2 --enable-libdav1d --enable-libflite --enable-libfontconfig --enable-libfreetype --enable-libfribidi --enable-libgme --enable-libgsm --enable-libjack --enable-libmp3lame --enable-libmysofa --enable-libopenjpeg --enable-libopenmpt --enable-libopus --enable-libpulse --enable-librabbitmq --enable-librubberband --enable-libshine --enable-libsnappy --enable-libsoxr --enable-libspeex --enable-libsrt --enable-libssh --enable-libtheora --enable-libtwolame --enable-libvidstab --enable-libvorbis --enable-libvpx --enable-libwebp --enable-libx265 --enable-libxml2 --enable-libxvid --enable-libzimg --enable-libzmq --enable-libzvbi --enable-lv2 --enable-omx --enable-openal --enable-opencl --enable-opengl --enable-sdl2 --enable-pocketsphinx --enable-librsvg --enable-libmfx --enable-libdc1394 --enable-libdrm --enable-libiec61883 --enable-chromaprint --enable-frei0r --enable-libx264 --enable-shared\n",
      "  libavutil      56. 70.100 / 56. 70.100\n",
      "  libavcodec     58.134.100 / 58.134.100\n",
      "  libavformat    58. 76.100 / 58. 76.100\n",
      "  libavdevice    58. 13.100 / 58. 13.100\n",
      "  libavfilter     7.110.100 /  7.110.100\n",
      "  libswscale      5.  9.100 /  5.  9.100\n",
      "  libswresample   3.  9.100 /  3.  9.100\n",
      "  libpostproc    55.  9.100 / 55.  9.100\n",
      "Input #0, image2, from '/home/priyam/UTN/Cloud_Database/Project/robotics_dataset_compression/datasets/droid_100_sample_pictures/idx_%d.png':\n",
      "  Duration: 00:00:05.53, start: 0.000000, bitrate: N/A\n",
      "  Stream #0:0: Video: png, rgb24(pc), 320x180, 30 fps, 30 tbr, 30 tbn, 30 tbc\n",
      "Stream mapping:\n",
      "  Stream #0:0 -> #0:0 (png (native) -> h264 (libx264))\n",
      "Press [q] to stop, [?] for help\n",
      "[libx264 @ 0x63479c952d40] using cpu capabilities: MMX2 SSE2Fast SSSE3 SSE4.2 AVX FMA3 BMI2 AVX2\n",
      "[libx264 @ 0x63479c952d40] profile High 4:4:4 Predictive, level 2.1, 4:4:4, 8-bit\n",
      "[libx264 @ 0x63479c952d40] 264 - core 163 r3060 5db6aa6 - H.264/MPEG-4 AVC codec - Copyleft 2003-2021 - http://www.videolan.org/x264.html - options: cabac=1 ref=16 deblock=1:0:0 analyse=0x3:0x133 me=umh subme=9 psy=0 mixed_ref=1 me_range=24 chroma_me=1 trellis=0 8x8dct=1 cqm=0 deadzone=21,11 fast_pskip=0 chroma_qp_offset=0 threads=6 lookahead_threads=1 sliced_threads=0 nr=0 decimate=1 interlaced=0 bluray_compat=0 constrained_intra=0 bframes=0 weightp=2 keyint=250 keyint_min=25 scenecut=40 intra_refresh=0 rc=cqp mbtree=0 qp=0\n",
      "Output #0, matroska, to './temp/output_lossless_h264_slow.mkv':\n",
      "  Metadata:\n",
      "    encoder         : Lavf58.76.100\n",
      "  Stream #0:0: Video: h264 (H264 / 0x34363248), yuv444p(tv, progressive), 320x180, q=2-31, 30 fps, 1k tbn\n",
      "    Metadata:\n",
      "      encoder         : Lavc58.134.100 libx264\n",
      "    Side data:\n",
      "      cpb: bitrate max/min/avg: 0/0/0 buffer size: 0 vbv_delay: N/A\n",
      "frame=  166 fps= 91 q=-1.0 Lsize=    6160kB time=00:00:05.50 bitrate=9173.8kbits/s speed=3.02x    \n",
      "video:6158kB audio:0kB subtitle:0kB other streams:0kB global headers:0kB muxing overhead: 0.031779%\n",
      "[libx264 @ 0x63479c952d40] frame I:1     Avg QP: 0.00  size: 60322\n",
      "[libx264 @ 0x63479c952d40] frame P:165   Avg QP: 0.00  size: 37850\n",
      "[libx264 @ 0x63479c952d40] mb I  I16..4: 35.0% 40.0% 25.0%\n",
      "[libx264 @ 0x63479c952d40] mb P  I16..4:  4.0%  1.8%  1.9%  P16..4: 44.7% 14.8% 30.5%  0.9%  1.3%    skip: 0.1%\n",
      "[libx264 @ 0x63479c952d40] 8x8 transform intra:24.7% inter:33.5%\n",
      "[libx264 @ 0x63479c952d40] coded y,u,v intra: 73.2% 58.4% 57.4% inter: 98.6% 87.1% 83.0%\n",
      "[libx264 @ 0x63479c952d40] i16 v,h,dc,p: 87% 13%  0%  0%\n",
      "[libx264 @ 0x63479c952d40] i8 v,h,dc,ddl,ddr,vr,hd,vl,hu: 48% 51%  0%  0%  0%  0%  0%  0%  0%\n",
      "[libx264 @ 0x63479c952d40] i4 v,h,dc,ddl,ddr,vr,hd,vl,hu: 60% 34%  2%  1%  1%  0%  0%  1%  1%\n",
      "[libx264 @ 0x63479c952d40] Weighted P-Frames: Y:0.0% UV:0.0%\n",
      "[libx264 @ 0x63479c952d40] ref P L0: 53.2%  2.3% 16.8%  7.5%  5.4%  3.4%  2.6%  1.6%  1.2%  1.0%  1.0%  0.9%  0.8%  0.9%  0.7%  0.7%\n",
      "[libx264 @ 0x63479c952d40] kb/s:9116.54\n",
      "ffmpeg version 4.4.2-0ubuntu0.22.04.1 Copyright (c) 2000-2021 the FFmpeg developers\n",
      "  built with gcc 11 (Ubuntu 11.2.0-19ubuntu1)\n",
      "  configuration: --prefix=/usr --extra-version=0ubuntu0.22.04.1 --toolchain=hardened --libdir=/usr/lib/x86_64-linux-gnu --incdir=/usr/include/x86_64-linux-gnu --arch=amd64 --enable-gpl --disable-stripping --enable-gnutls --enable-ladspa --enable-libaom --enable-libass --enable-libbluray --enable-libbs2b --enable-libcaca --enable-libcdio --enable-libcodec2 --enable-libdav1d --enable-libflite --enable-libfontconfig --enable-libfreetype --enable-libfribidi --enable-libgme --enable-libgsm --enable-libjack --enable-libmp3lame --enable-libmysofa --enable-libopenjpeg --enable-libopenmpt --enable-libopus --enable-libpulse --enable-librabbitmq --enable-librubberband --enable-libshine --enable-libsnappy --enable-libsoxr --enable-libspeex --enable-libsrt --enable-libssh --enable-libtheora --enable-libtwolame --enable-libvidstab --enable-libvorbis --enable-libvpx --enable-libwebp --enable-libx265 --enable-libxml2 --enable-libxvid --enable-libzimg --enable-libzmq --enable-libzvbi --enable-lv2 --enable-omx --enable-openal --enable-opencl --enable-opengl --enable-sdl2 --enable-pocketsphinx --enable-librsvg --enable-libmfx --enable-libdc1394 --enable-libdrm --enable-libiec61883 --enable-chromaprint --enable-frei0r --enable-libx264 --enable-shared\n",
      "  libavutil      56. 70.100 / 56. 70.100\n",
      "  libavcodec     58.134.100 / 58.134.100\n",
      "  libavformat    58. 76.100 / 58. 76.100\n",
      "  libavdevice    58. 13.100 / 58. 13.100\n",
      "  libavfilter     7.110.100 /  7.110.100\n",
      "  libswscale      5.  9.100 /  5.  9.100\n",
      "  libswresample   3.  9.100 /  3.  9.100\n",
      "  libpostproc    55.  9.100 / 55.  9.100\n",
      "Input #0, image2, from '/home/priyam/UTN/Cloud_Database/Project/robotics_dataset_compression/datasets/droid_100_sample_pictures/idx_%d.png':\n",
      "  Duration: 00:00:05.53, start: 0.000000, bitrate: N/A\n",
      "  Stream #0:0: Video: png, rgb24(pc), 320x180, 30 fps, 30 tbr, 30 tbn, 30 tbc\n",
      "Stream mapping:\n",
      "  Stream #0:0 -> #0:0 (png (native) -> hevc (libx265))\n",
      "Press [q] to stop, [?] for help\n",
      "x265 [info]: HEVC encoder version 3.5+1-f0c1022b6\n",
      "x265 [info]: build info [Linux][GCC 11.2.0][64 bit] 8bit+10bit+12bit\n",
      "x265 [info]: using cpu capabilities: MMX2 SSE2Fast LZCNT SSSE3 SSE4.2 AVX FMA3 BMI2 AVX2\n",
      "x265 [warning]: halving the quality when psy-rd is enabled for 444 input. Setting cbQpOffset = 6 and crQpOffset = 6\n",
      "x265 [info]: Main 4:4:4 profile, Level-8.5 (Main tier)\n",
      "x265 [info]: Thread pool created using 8 threads\n",
      "x265 [info]: Slices                              : 1\n",
      "x265 [info]: frame threads / pool features       : 3 / wpp(6 rows)\n",
      "x265 [warning]: Source height < 720p; disabling lookahead-slices\n",
      "x265 [info]: Coding QT: max CU size, min CU size : 32 / 16\n",
      "x265 [info]: Residual QT: max TU size, max depth : 32 / 1 inter / 1 intra\n",
      "x265 [info]: ME / range / subpel / merge         : dia / 57 / 0 / 2\n",
      "x265 [info]: Cb/Cr QP Offset                     : 6 / 6\n",
      "x265 [info]: Lookahead / bframes / badapt        : 5 / 3 / 0\n",
      "x265 [info]: b-pyramid / weightp / weightb       : 1 / 0 / 0\n",
      "x265 [info]: References / ref-limit  cu / depth  : 1 / off / off\n",
      "x265 [info]: Rate Control                        : Lossless\n",
      "x265 [info]: tools: rd=2 psy-rd=2.00 early-skip rskip mode=1 tmvp fast-intra\n",
      "x265 [info]: tools: strong-intra-smoothing deblock\n",
      "Output #0, mp4, to './temp/output_lossless_h265_fast.mp4':\n",
      "  Metadata:\n",
      "    encoder         : Lavf58.76.100\n",
      "  Stream #0:0: Video: hevc (hev1 / 0x31766568), gbrp(pc, gbr/unknown/unknown, progressive), 320x180, q=2-31, 30 fps, 15360 tbn\n",
      "    Metadata:\n",
      "      encoder         : Lavc58.134.100 libx265\n",
      "    Side data:\n",
      "      cpb: bitrate max/min/avg: 0/0/0 buffer size: 0 vbv_delay: N/A\n",
      "frame=  166 fps=0.0 q=4.0 Lsize=   11601kB time=00:00:05.43 bitrate=17490.8kbits/s speed=5.44x    \n",
      "video:11596kB audio:0kB subtitle:0kB other streams:0kB global headers:2kB muxing overhead: 0.046000%\n",
      "x265 [info]: frame I:      1, Avg QP:4.00  kb/s: 35759.04\n",
      "x265 [info]: frame P:     42, Avg QP:4.00  kb/s: 19394.33\n",
      "x265 [info]: frame B:    123, Avg QP:4.00  kb/s: 16254.06\n",
      "x265 [info]: consecutive B-frames: 4.7% 0.0% 0.0% 95.3% \n",
      "x265 [info]: lossless compression ratio 0.81::1\n",
      "\n",
      "encoded 166 frames in 0.99s (168.52 fps), 17166.09 kb/s, Avg QP:4.00\n",
      "ffmpeg version 4.4.2-0ubuntu0.22.04.1 Copyright (c) 2000-2021 the FFmpeg developers\n",
      "  built with gcc 11 (Ubuntu 11.2.0-19ubuntu1)\n",
      "  configuration: --prefix=/usr --extra-version=0ubuntu0.22.04.1 --toolchain=hardened --libdir=/usr/lib/x86_64-linux-gnu --incdir=/usr/include/x86_64-linux-gnu --arch=amd64 --enable-gpl --disable-stripping --enable-gnutls --enable-ladspa --enable-libaom --enable-libass --enable-libbluray --enable-libbs2b --enable-libcaca --enable-libcdio --enable-libcodec2 --enable-libdav1d --enable-libflite --enable-libfontconfig --enable-libfreetype --enable-libfribidi --enable-libgme --enable-libgsm --enable-libjack --enable-libmp3lame --enable-libmysofa --enable-libopenjpeg --enable-libopenmpt --enable-libopus --enable-libpulse --enable-librabbitmq --enable-librubberband --enable-libshine --enable-libsnappy --enable-libsoxr --enable-libspeex --enable-libsrt --enable-libssh --enable-libtheora --enable-libtwolame --enable-libvidstab --enable-libvorbis --enable-libvpx --enable-libwebp --enable-libx265 --enable-libxml2 --enable-libxvid --enable-libzimg --enable-libzmq --enable-libzvbi --enable-lv2 --enable-omx --enable-openal --enable-opencl --enable-opengl --enable-sdl2 --enable-pocketsphinx --enable-librsvg --enable-libmfx --enable-libdc1394 --enable-libdrm --enable-libiec61883 --enable-chromaprint --enable-frei0r --enable-libx264 --enable-shared\n",
      "  libavutil      56. 70.100 / 56. 70.100\n",
      "  libavcodec     58.134.100 / 58.134.100\n",
      "  libavformat    58. 76.100 / 58. 76.100\n",
      "  libavdevice    58. 13.100 / 58. 13.100\n",
      "  libavfilter     7.110.100 /  7.110.100\n",
      "  libswscale      5.  9.100 /  5.  9.100\n",
      "  libswresample   3.  9.100 /  3.  9.100\n",
      "  libpostproc    55.  9.100 / 55.  9.100\n",
      "Input #0, image2, from '/home/priyam/UTN/Cloud_Database/Project/robotics_dataset_compression/datasets/droid_100_sample_pictures/idx_%d.png':\n",
      "  Duration: 00:00:05.53, start: 0.000000, bitrate: N/A\n",
      "  Stream #0:0: Video: png, rgb24(pc), 320x180, 30 fps, 30 tbr, 30 tbn, 30 tbc\n",
      "Stream mapping:\n",
      "  Stream #0:0 -> #0:0 (png (native) -> hevc (libx265))\n",
      "Press [q] to stop, [?] for help\n",
      "x265 [info]: HEVC encoder version 3.5+1-f0c1022b6\n",
      "x265 [info]: build info [Linux][GCC 11.2.0][64 bit] 8bit+10bit+12bit\n",
      "x265 [info]: using cpu capabilities: MMX2 SSE2Fast LZCNT SSSE3 SSE4.2 AVX FMA3 BMI2 AVX2\n",
      "x265 [warning]: halving the quality when psy-rd is enabled for 444 input. Setting cbQpOffset = 6 and crQpOffset = 6\n",
      "x265 [info]: Main 4:4:4 profile, Level-8.5 (Main tier)\n",
      "x265 [info]: Thread pool created using 8 threads\n",
      "x265 [info]: Slices                              : 1\n",
      "x265 [info]: frame threads / pool features       : 3 / wpp(3 rows)\n",
      "x265 [info]: Coding QT: max CU size, min CU size : 64 / 8\n",
      "x265 [info]: Residual QT: max TU size, max depth : 32 / 3 inter / 3 intra\n",
      "x265 [info]: ME / range / subpel / merge         : star / 57 / 4 / 5\n",
      "x265 [info]: Keyframe min / max / scenecut / bias  : 25 / 250 / 40 / 5.00 \n",
      "x265 [info]: Cb/Cr QP Offset                     : 6 / 6\n",
      "x265 [info]: Lookahead / bframes / badapt        : 40 / 8 / 2\n",
      "x265 [info]: b-pyramid / weightp / weightb       : 1 / 1 / 1\n",
      "x265 [info]: References / ref-limit  cu / depth  : 5 / off / off\n",
      "x265 [info]: Rate Control                        : Lossless\n",
      "x265 [info]: tools: rect amp rd=6 psy-rd=2.00 rdoq=2 psy-rdoq=1.00 rskip mode=1\n",
      "x265 [info]: tools: signhide tmvp b-intra strong-intra-smoothing deblock sao\n",
      "Output #0, mp4, to './temp/output_lossless_h265_slow.mp4':\n",
      "  Metadata:\n",
      "    encoder         : Lavf58.76.100\n",
      "  Stream #0:0: Video: hevc (hev1 / 0x31766568), gbrp(pc, gbr/unknown/unknown, progressive), 320x180, q=2-31, 30 fps, 15360 tbn\n",
      "    Metadata:\n",
      "      encoder         : Lavc58.134.100 libx265\n",
      "    Side data:\n",
      "      cpb: bitrate max/min/avg: 0/0/0 buffer size: 0 vbv_delay: N/A\n",
      "frame=  164 fps=7.2 q=4.0 size=    7168kB time=00:00:03.60 bitrate=16311.0kbits/s speed=0.159x     \r"
     ]
    },
    {
     "name": "stdout",
     "output_type": "stream",
     "text": [
      "total_img_size=37.341684\n",
      "h264_slow_size=6.308144\n",
      "h264_fast_size=7.961946\n",
      "h265_slow_size=10.918722\n",
      "h265_fast_size=11.879336\n"
     ]
    },
    {
     "name": "stderr",
     "output_type": "stream",
     "text": [
      "frame=  166 fps=4.5 q=4.0 Lsize=   10663kB time=00:00:05.43 bitrate=16076.5kbits/s speed=0.147x    \n",
      "video:10658kB audio:0kB subtitle:0kB other streams:0kB global headers:2kB muxing overhead: 0.047583%\n",
      "x265 [info]: frame I:      1, Avg QP:4.00  kb/s: 27725.04\n",
      "x265 [info]: frame P:     34, Avg QP:4.00  kb/s: 17569.14\n",
      "x265 [info]: frame B:    131, Avg QP:4.00  kb/s: 15221.47\n",
      "x265 [info]: Weighted P-Frames: Y:0.0% UV:0.0%\n",
      "x265 [info]: Weighted B-Frames: Y:0.0% UV:0.0%\n",
      "x265 [info]: consecutive B-frames: 2.9% 2.9% 5.7% 37.1% 25.7% 14.3% 5.7% 5.7% 0.0% \n",
      "x265 [info]: lossless compression ratio 0.88::1\n",
      "\n",
      "encoded 166 frames in 36.97s (4.49 fps), 15777.64 kb/s, Avg QP:4.00\n"
     ]
    }
   ],
   "source": [
    "import os\n",
    "\n",
    "def get_img2vid_size(data_path, fps=30, out_dir=\"./temp/\", delete_tmp=False, image_format=\"frame_%d.png\"):\n",
    "\n",
    "    if not os.path.exists(out_dir):\n",
    "        os.makedirs(out_dir)\n",
    "\n",
    "    img_size_list = [os.path.getsize(os.path.join(data_path, img)) for img in os.listdir(data_path) if img.endswith(\".png\")]\n",
    "\n",
    "    total_img_size = sum(img_size_list) / 10** 6\n",
    "\n",
    "    # os.system(f\"ffmpeg -f image2 -framerate {fps} -i {dataset_path}{image_format} -c:v libx265 {out_dir}output.mp4\")\n",
    "    # os.system(f\"ffmpeg -f image2 -framerate {fps} -i {dataset_path}{image_format} -c:v libx264 -preset veryslow -qp 0 {out_dir}output_lossless_h264.avi\")\n",
    "\n",
    "    os.system(f\"ffmpeg -f image2 -framerate {fps} -i {os.path.join(data_path, image_format)} -c:v libx264 -preset ultrafast -qp 0 {os.path.join(out_dir, 'output_lossless_h264_fast.mkv')}\")\n",
    "    os.system(f\"ffmpeg -f image2 -framerate {fps} -i {os.path.join(data_path, image_format)} -c:v libx264 -preset veryslow -qp 0 {os.path.join(out_dir, 'output_lossless_h264_slow.mkv')}\")\n",
    "    os.system(f\"ffmpeg -f image2 -framerate {fps} -i {os.path.join(data_path, image_format)} -c:v libx265 -preset ultrafast -x265-params lossless=1 {os.path.join(out_dir, 'output_lossless_h265_fast.mp4')}\")\n",
    "    os.system(f\"ffmpeg -f image2 -framerate {fps} -i {os.path.join(data_path, image_format)} -c:v libx265 -preset veryslow -x265-params lossless=1 {os.path.join(out_dir, 'output_lossless_h265_slow.mp4')}\")\n",
    "\n",
    "    # os.system(\"\"\"ffmpeg -framerate 30 -i image_%03d.png -f yuv4mpegpipe -pix_fmt yuv420p - | vvc_encoder_app -c lossless.cfg -i - -o output_lossless_h266.bin\"\"\")\n",
    "    h264_slow_size = os.path.getsize(os.path.join(out_dir, \"output_lossless_h264_slow.mkv\")) / 10** 6\n",
    "    h264_fast_size = os.path.getsize(os.path.join(out_dir, \"output_lossless_h264_fast.mkv\")) / 10** 6\n",
    "    h265_slow_size = os.path.getsize(os.path.join(out_dir, \"output_lossless_h265_slow.mp4\")) / 10** 6\n",
    "    h265_fast_size = os.path.getsize(os.path.join(out_dir, \"output_lossless_h265_fast.mp4\")) / 10** 6\n",
    "\n",
    "    if delete_tmp:\n",
    "        os.system(f\"rm -r {out_dir}\")\n",
    "        # os.system(f\"rm {os.path.join(out_dir, \"output_lossless_h264_slow.mkv\")}\")\n",
    "        # os.system(f\"rm {os.path.join(out_dir, \"output_lossless_h264_fast.mkv\")}\")\n",
    "        # os.system(f\"rm {os.path.join(out_dir, \"output_lossless_h265_slow.mp4\")}\")\n",
    "        # os.system(f\"rm {os.path.join(out_dir, \"output_lossless_h265_fast.mp4\")}\")\n",
    "\n",
    "    print(f\"{total_img_size=}\")\n",
    "    print(f\"{h264_slow_size=}\")\n",
    "    print(f\"{h264_fast_size=}\")\n",
    "    print(f\"{h265_slow_size=}\")\n",
    "    print(f\"{h265_fast_size=}\")\n",
    "    return {\n",
    "        \"total_img_size\": total_img_size,\n",
    "        \"h264_slow_size\": h264_slow_size,\n",
    "        \"h264_fast_size\": h264_fast_size,\n",
    "        \"h265_slow_size\": h265_slow_size,\n",
    "        \"h265_fast_size\": h265_fast_size,\n",
    "    }\n",
    "\n",
    "\n",
    "if __name__ == \"__main__\":\n",
    "    ori_order = get_img2vid_size(\"/home/priyam/UTN/Cloud_Database/Project/robotics_dataset_compression/datasets/droid_100_sample_pictures\", image_format=\"idx_%d.png\")\n",
    "    # reorder = get_img2vid_size(\"./datasets/droid_100_sample_pictures_reorder/\", image_format=\"idx_new_%d.png\", delete_tmp=False)\n",
    "    # print(f\"{ori_order=}\")\n",
    "    # print(f\"{reorder=}\")\n",
    "\n",
    "    # ori_order = get_img2vid_size(\"/home/suman/Desktop/robotics_dataset_compression/datasets/chips_droid/\")\n"
   ]
  },
  {
   "cell_type": "code",
   "execution_count": 12,
   "metadata": {},
   "outputs": [],
   "source": [
    "def get_vid2img(video_path, output_dir, fps=30, img_format=\"frame_%03d.png\"):\n",
    "\n",
    "    if not os.path.exists(output_dir):\n",
    "        os.makedirs(output_dir)\n",
    "\n",
    "    command = f\"ffmpeg -i {video_path} -vf fps={fps} {os.path.join(output_dir, img_format)}\"\n",
    "    os.system(command)\n",
    "    \n",
    "    # Count the number of extracted frames\n",
    "    num_frames = len([f for f in os.listdir(output_dir) if f.endswith(\".png\")])\n",
    "    print(f\"Extracted {num_frames} frames from {video_path} to {output_dir}\")\n",
    "    return num_frames\n",
    "\n",
    "\n",
    "    "
   ]
  },
  {
   "cell_type": "code",
   "execution_count": 13,
   "metadata": {},
   "outputs": [
    {
     "name": "stderr",
     "output_type": "stream",
     "text": [
      "ffmpeg version 4.4.2-0ubuntu0.22.04.1 Copyright (c) 2000-2021 the FFmpeg developers\n",
      "  built with gcc 11 (Ubuntu 11.2.0-19ubuntu1)\n",
      "  configuration: --prefix=/usr --extra-version=0ubuntu0.22.04.1 --toolchain=hardened --libdir=/usr/lib/x86_64-linux-gnu --incdir=/usr/include/x86_64-linux-gnu --arch=amd64 --enable-gpl --disable-stripping --enable-gnutls --enable-ladspa --enable-libaom --enable-libass --enable-libbluray --enable-libbs2b --enable-libcaca --enable-libcdio --enable-libcodec2 --enable-libdav1d --enable-libflite --enable-libfontconfig --enable-libfreetype --enable-libfribidi --enable-libgme --enable-libgsm --enable-libjack --enable-libmp3lame --enable-libmysofa --enable-libopenjpeg --enable-libopenmpt --enable-libopus --enable-libpulse --enable-librabbitmq --enable-librubberband --enable-libshine --enable-libsnappy --enable-libsoxr --enable-libspeex --enable-libsrt --enable-libssh --enable-libtheora --enable-libtwolame --enable-libvidstab --enable-libvorbis --enable-libvpx --enable-libwebp --enable-libx265 --enable-libxml2 --enable-libxvid --enable-libzimg --enable-libzmq --enable-libzvbi --enable-lv2 --enable-omx --enable-openal --enable-opencl --enable-opengl --enable-sdl2 --enable-pocketsphinx --enable-librsvg --enable-libmfx --enable-libdc1394 --enable-libdrm --enable-libiec61883 --enable-chromaprint --enable-frei0r --enable-libx264 --enable-shared\n",
      "  libavutil      56. 70.100 / 56. 70.100\n",
      "  libavcodec     58.134.100 / 58.134.100\n",
      "  libavformat    58. 76.100 / 58. 76.100\n",
      "  libavdevice    58. 13.100 / 58. 13.100\n",
      "  libavfilter     7.110.100 /  7.110.100\n",
      "  libswscale      5.  9.100 /  5.  9.100\n",
      "  libswresample   3.  9.100 /  3.  9.100\n",
      "  libpostproc    55.  9.100 / 55.  9.100\n",
      "Input #0, matroska,webm, from '/home/priyam/UTN/Cloud_Database/Project/robotics_dataset_compression/research/temp/output_lossless_h264_fast.mkv':\n",
      "  Metadata:\n",
      "    ENCODER         : Lavf58.76.100\n",
      "  Duration: 00:00:05.53, start: 0.000000, bitrate: 11511 kb/s\n",
      "  Stream #0:0: Video: h264 (High 4:4:4 Predictive), yuv444p(tv, progressive), 320x180, 30 fps, 30 tbr, 1k tbn, 60 tbc (default)\n",
      "    Metadata:\n",
      "      ENCODER         : Lavc58.134.100 libx264\n",
      "      DURATION        : 00:00:05.533000000\n",
      "Stream mapping:\n",
      "  Stream #0:0 -> #0:0 (h264 (native) -> png (native))\n",
      "Press [q] to stop, [?] for help\n",
      "Output #0, image2, to './extracted_frames_video_1/frame_%03d.png':\n",
      "  Metadata:\n",
      "    encoder         : Lavf58.76.100\n",
      "  Stream #0:0: Video: png, rgb24(pc, gbr/unknown/unknown, progressive), 320x180, q=2-31, 200 kb/s, 30 fps, 30 tbn (default)\n",
      "    Metadata:\n",
      "      DURATION        : 00:00:05.533000000\n",
      "      encoder         : Lavc58.134.100 png\n",
      "frame=  166 fps=0.0 q=-0.0 Lsize=N/A time=00:00:05.53 bitrate=N/A speed=15.3x    \n",
      "video:21421kB audio:0kB subtitle:0kB other streams:0kB global headers:0kB muxing overhead: unknown\n",
      "ffmpeg version 4.4.2-0ubuntu0.22.04.1 Copyright (c) 2000-2021 the FFmpeg developers\n",
      "  built with gcc 11 (Ubuntu 11.2.0-19ubuntu1)\n",
      "  configuration: --prefix=/usr --extra-version=0ubuntu0.22.04.1 --toolchain=hardened --libdir=/usr/lib/x86_64-linux-gnu --incdir=/usr/include/x86_64-linux-gnu --arch=amd64 --enable-gpl --disable-stripping --enable-gnutls --enable-ladspa --enable-libaom --enable-libass --enable-libbluray --enable-libbs2b --enable-libcaca --enable-libcdio --enable-libcodec2 --enable-libdav1d --enable-libflite --enable-libfontconfig --enable-libfreetype --enable-libfribidi --enable-libgme --enable-libgsm --enable-libjack --enable-libmp3lame --enable-libmysofa --enable-libopenjpeg --enable-libopenmpt --enable-libopus --enable-libpulse --enable-librabbitmq --enable-librubberband --enable-libshine --enable-libsnappy --enable-libsoxr --enable-libspeex --enable-libsrt --enable-libssh --enable-libtheora --enable-libtwolame --enable-libvidstab --enable-libvorbis --enable-libvpx --enable-libwebp --enable-libx265 --enable-libxml2 --enable-libxvid --enable-libzimg --enable-libzmq --enable-libzvbi --enable-lv2 --enable-omx --enable-openal --enable-opencl --enable-opengl --enable-sdl2 --enable-pocketsphinx --enable-librsvg --enable-libmfx --enable-libdc1394 --enable-libdrm --enable-libiec61883 --enable-chromaprint --enable-frei0r --enable-libx264 --enable-shared\n",
      "  libavutil      56. 70.100 / 56. 70.100\n",
      "  libavcodec     58.134.100 / 58.134.100\n",
      "  libavformat    58. 76.100 / 58. 76.100\n",
      "  libavdevice    58. 13.100 / 58. 13.100\n",
      "  libavfilter     7.110.100 /  7.110.100\n",
      "  libswscale      5.  9.100 /  5.  9.100\n",
      "  libswresample   3.  9.100 /  3.  9.100\n",
      "  libpostproc    55.  9.100 / 55.  9.100\n",
      "Input #0, matroska,webm, from '/home/priyam/UTN/Cloud_Database/Project/robotics_dataset_compression/research/temp/output_lossless_h264_slow.mkv':\n",
      "  Metadata:\n",
      "    ENCODER         : Lavf58.76.100\n",
      "  Duration: 00:00:05.53, start: 0.000000, bitrate: 9120 kb/s\n",
      "  Stream #0:0: Video: h264 (High 4:4:4 Predictive), yuv444p(tv, progressive), 320x180, 30 fps, 30 tbr, 1k tbn, 60 tbc (default)\n",
      "    Metadata:\n",
      "      ENCODER         : Lavc58.134.100 libx264\n",
      "      DURATION        : 00:00:05.533000000\n",
      "Stream mapping:\n",
      "  Stream #0:0 -> #0:0 (h264 (native) -> png (native))\n",
      "Press [q] to stop, [?] for help\n",
      "Output #0, image2, to './extracted_frames_video_2/frame_%03d.png':\n",
      "  Metadata:\n",
      "    encoder         : Lavf58.76.100\n",
      "  Stream #0:0: Video: png, rgb24(pc, gbr/unknown/unknown, progressive), 320x180, q=2-31, 200 kb/s, 30 fps, 30 tbn (default)\n",
      "    Metadata:\n",
      "      DURATION        : 00:00:05.533000000\n",
      "      encoder         : Lavc58.134.100 png\n",
      "frame=    1 fps=0.0 q=0.0 size=N/A time=00:00:00.00 bitrate=N/A speed=   0x    \r"
     ]
    },
    {
     "name": "stdout",
     "output_type": "stream",
     "text": [
      "Extracted 166 frames from /home/priyam/UTN/Cloud_Database/Project/robotics_dataset_compression/research/temp/output_lossless_h264_fast.mkv to ./extracted_frames_video_1\n",
      "Video 1: Extracted 166 frames.\n"
     ]
    },
    {
     "name": "stderr",
     "output_type": "stream",
     "text": [
      "frame=  166 fps=0.0 q=-0.0 Lsize=N/A time=00:00:05.53 bitrate=N/A speed=11.2x    \n",
      "video:21421kB audio:0kB subtitle:0kB other streams:0kB global headers:0kB muxing overhead: unknown\n",
      "ffmpeg version 4.4.2-0ubuntu0.22.04.1 Copyright (c) 2000-2021 the FFmpeg developers\n",
      "  built with gcc 11 (Ubuntu 11.2.0-19ubuntu1)\n",
      "  configuration: --prefix=/usr --extra-version=0ubuntu0.22.04.1 --toolchain=hardened --libdir=/usr/lib/x86_64-linux-gnu --incdir=/usr/include/x86_64-linux-gnu --arch=amd64 --enable-gpl --disable-stripping --enable-gnutls --enable-ladspa --enable-libaom --enable-libass --enable-libbluray --enable-libbs2b --enable-libcaca --enable-libcdio --enable-libcodec2 --enable-libdav1d --enable-libflite --enable-libfontconfig --enable-libfreetype --enable-libfribidi --enable-libgme --enable-libgsm --enable-libjack --enable-libmp3lame --enable-libmysofa --enable-libopenjpeg --enable-libopenmpt --enable-libopus --enable-libpulse --enable-librabbitmq --enable-librubberband --enable-libshine --enable-libsnappy --enable-libsoxr --enable-libspeex --enable-libsrt --enable-libssh --enable-libtheora --enable-libtwolame --enable-libvidstab --enable-libvorbis --enable-libvpx --enable-libwebp --enable-libx265 --enable-libxml2 --enable-libxvid --enable-libzimg --enable-libzmq --enable-libzvbi --enable-lv2 --enable-omx --enable-openal --enable-opencl --enable-opengl --enable-sdl2 --enable-pocketsphinx --enable-librsvg --enable-libmfx --enable-libdc1394 --enable-libdrm --enable-libiec61883 --enable-chromaprint --enable-frei0r --enable-libx264 --enable-shared\n",
      "  libavutil      56. 70.100 / 56. 70.100\n",
      "  libavcodec     58.134.100 / 58.134.100\n",
      "  libavformat    58. 76.100 / 58. 76.100\n",
      "  libavdevice    58. 13.100 / 58. 13.100\n",
      "  libavfilter     7.110.100 /  7.110.100\n",
      "  libswscale      5.  9.100 /  5.  9.100\n",
      "  libswresample   3.  9.100 /  3.  9.100\n",
      "  libpostproc    55.  9.100 / 55.  9.100\n",
      "Input #0, mov,mp4,m4a,3gp,3g2,mj2, from '/home/priyam/UTN/Cloud_Database/Project/robotics_dataset_compression/research/temp/output_lossless_h265_fast.mp4':\n",
      "  Metadata:\n",
      "    major_brand     : isom\n",
      "    minor_version   : 512\n",
      "    compatible_brands: isomiso2mp41\n",
      "    encoder         : Lavf58.76.100\n",
      "  Duration: 00:00:05.53, start: 0.000000, bitrate: 17172 kb/s\n",
      "  Stream #0:0(und): Video: hevc (Rext) (hev1 / 0x31766568), gbrp(pc, gbr/unknown/unknown, progressive), 320x180, 17167 kb/s, 30 fps, 30 tbr, 15360 tbn, 30 tbc (default)\n",
      "    Metadata:\n",
      "      handler_name    : VideoHandler\n",
      "      vendor_id       : [0][0][0][0]\n",
      "Stream mapping:\n",
      "  Stream #0:0 -> #0:0 (hevc (native) -> png (native))\n",
      "Press [q] to stop, [?] for help\n",
      "Output #0, image2, to './extracted_frames_video_3/frame_%03d.png':\n",
      "  Metadata:\n",
      "    major_brand     : isom\n",
      "    minor_version   : 512\n",
      "    compatible_brands: isomiso2mp41\n",
      "    encoder         : Lavf58.76.100\n",
      "  Stream #0:0(und): Video: png, rgb24(pc, gbr/unknown/unknown, progressive), 320x180, q=2-31, 200 kb/s, 30 fps, 30 tbn (default)\n",
      "    Metadata:\n",
      "      handler_name    : VideoHandler\n",
      "      vendor_id       : [0][0][0][0]\n",
      "      encoder         : Lavc58.134.100 png\n",
      "frame=    1 fps=0.0 q=0.0 size=N/A time=00:00:00.00 bitrate=N/A speed=   0x    \r"
     ]
    },
    {
     "name": "stdout",
     "output_type": "stream",
     "text": [
      "Extracted 166 frames from /home/priyam/UTN/Cloud_Database/Project/robotics_dataset_compression/research/temp/output_lossless_h264_slow.mkv to ./extracted_frames_video_2\n",
      "Video 2: Extracted 166 frames.\n"
     ]
    },
    {
     "name": "stderr",
     "output_type": "stream",
     "text": [
      "frame=  166 fps=0.0 q=-0.0 Lsize=N/A time=00:00:05.53 bitrate=N/A speed=9.85x    \n",
      "video:22432kB audio:0kB subtitle:0kB other streams:0kB global headers:0kB muxing overhead: unknown\n",
      "ffmpeg version 4.4.2-0ubuntu0.22.04.1 Copyright (c) 2000-2021 the FFmpeg developers\n",
      "  built with gcc 11 (Ubuntu 11.2.0-19ubuntu1)\n",
      "  configuration: --prefix=/usr --extra-version=0ubuntu0.22.04.1 --toolchain=hardened --libdir=/usr/lib/x86_64-linux-gnu --incdir=/usr/include/x86_64-linux-gnu --arch=amd64 --enable-gpl --disable-stripping --enable-gnutls --enable-ladspa --enable-libaom --enable-libass --enable-libbluray --enable-libbs2b --enable-libcaca --enable-libcdio --enable-libcodec2 --enable-libdav1d --enable-libflite --enable-libfontconfig --enable-libfreetype --enable-libfribidi --enable-libgme --enable-libgsm --enable-libjack --enable-libmp3lame --enable-libmysofa --enable-libopenjpeg --enable-libopenmpt --enable-libopus --enable-libpulse --enable-librabbitmq --enable-librubberband --enable-libshine --enable-libsnappy --enable-libsoxr --enable-libspeex --enable-libsrt --enable-libssh --enable-libtheora --enable-libtwolame --enable-libvidstab --enable-libvorbis --enable-libvpx --enable-libwebp --enable-libx265 --enable-libxml2 --enable-libxvid --enable-libzimg --enable-libzmq --enable-libzvbi --enable-lv2 --enable-omx --enable-openal --enable-opencl --enable-opengl --enable-sdl2 --enable-pocketsphinx --enable-librsvg --enable-libmfx --enable-libdc1394 --enable-libdrm --enable-libiec61883 --enable-chromaprint --enable-frei0r --enable-libx264 --enable-shared\n",
      "  libavutil      56. 70.100 / 56. 70.100\n",
      "  libavcodec     58.134.100 / 58.134.100\n",
      "  libavformat    58. 76.100 / 58. 76.100\n",
      "  libavdevice    58. 13.100 / 58. 13.100\n",
      "  libavfilter     7.110.100 /  7.110.100\n",
      "  libswscale      5.  9.100 /  5.  9.100\n",
      "  libswresample   3.  9.100 /  3.  9.100\n",
      "  libpostproc    55.  9.100 / 55.  9.100\n",
      "Input #0, mov,mp4,m4a,3gp,3g2,mj2, from '/home/priyam/UTN/Cloud_Database/Project/robotics_dataset_compression/research/temp/output_lossless_h265_slow.mp4':\n",
      "  Metadata:\n",
      "    major_brand     : isom\n",
      "    minor_version   : 512\n",
      "    compatible_brands: isomiso2mp41\n",
      "    encoder         : Lavf58.76.100\n",
      "  Duration: 00:00:05.53, start: 0.000000, bitrate: 15784 kb/s\n",
      "  Stream #0:0(und): Video: hevc (Rext) (hev1 / 0x31766568), gbrp(pc, gbr/unknown/unknown, progressive), 320x180, 15778 kb/s, 30 fps, 30 tbr, 15360 tbn, 30 tbc (default)\n",
      "    Metadata:\n",
      "      handler_name    : VideoHandler\n",
      "      vendor_id       : [0][0][0][0]\n",
      "Stream mapping:\n",
      "  Stream #0:0 -> #0:0 (hevc (native) -> png (native))\n",
      "Press [q] to stop, [?] for help\n",
      "Output #0, image2, to './extracted_frames_video_4/frame_%03d.png':\n",
      "  Metadata:\n",
      "    major_brand     : isom\n",
      "    minor_version   : 512\n",
      "    compatible_brands: isomiso2mp41\n",
      "    encoder         : Lavf58.76.100\n",
      "  Stream #0:0(und): Video: png, rgb24(pc, gbr/unknown/unknown, progressive), 320x180, q=2-31, 200 kb/s, 30 fps, 30 tbn (default)\n",
      "    Metadata:\n",
      "      handler_name    : VideoHandler\n",
      "      vendor_id       : [0][0][0][0]\n",
      "      encoder         : Lavc58.134.100 png\n",
      "frame=    1 fps=0.0 q=0.0 size=N/A time=00:00:00.00 bitrate=N/A speed=   0x    \r"
     ]
    },
    {
     "name": "stdout",
     "output_type": "stream",
     "text": [
      "Extracted 166 frames from /home/priyam/UTN/Cloud_Database/Project/robotics_dataset_compression/research/temp/output_lossless_h265_fast.mp4 to ./extracted_frames_video_3\n",
      "Video 3: Extracted 166 frames.\n",
      "Extracted 166 frames from /home/priyam/UTN/Cloud_Database/Project/robotics_dataset_compression/research/temp/output_lossless_h265_slow.mp4 to ./extracted_frames_video_4\n",
      "Video 4: Extracted 166 frames.\n"
     ]
    },
    {
     "name": "stderr",
     "output_type": "stream",
     "text": [
      "frame=  166 fps=0.0 q=-0.0 Lsize=N/A time=00:00:05.53 bitrate=N/A speed=7.83x    \n",
      "video:22432kB audio:0kB subtitle:0kB other streams:0kB global headers:0kB muxing overhead: unknown\n"
     ]
    }
   ],
   "source": [
    "videos = [\n",
    "        \"/home/priyam/UTN/Cloud_Database/Project/robotics_dataset_compression/research/temp/output_lossless_h264_fast.mkv\",\n",
    "        \"/home/priyam/UTN/Cloud_Database/Project/robotics_dataset_compression/research/temp/output_lossless_h264_slow.mkv\",\n",
    "        \"/home/priyam/UTN/Cloud_Database/Project/robotics_dataset_compression/research/temp/output_lossless_h265_fast.mp4\",\n",
    "        \"/home/priyam/UTN/Cloud_Database/Project/robotics_dataset_compression/research/temp/output_lossless_h265_slow.mp4\"\n",
    "    ]\n",
    "    \n",
    "for i, video in enumerate(videos, start=1):\n",
    "    output_dir = f\"./extracted_frames_video_{i}\"\n",
    "    num_frames = get_vid2img(video, output_dir, fps=30)\n",
    "    print(f\"Video {i}: Extracted {num_frames} frames.\")\n"
   ]
  },
  {
   "cell_type": "code",
   "execution_count": 17,
   "metadata": {},
   "outputs": [],
   "source": [
    "import os\n",
    "import cv2\n",
    "import numpy as np\n",
    "from skimage.metrics import structural_similarity as ssim\n",
    "from natsort import natsorted\n",
    "import cv2\n",
    "import numpy as np\n",
    "\n",
    "def compare_images(img1_path, img2_path):\n",
    "    \"\"\"\n",
    "    Compare two images using MSE and SSIM, handling common issues.\n",
    "    \n",
    "    Args:\n",
    "        img1_path (str): Path to the first image.\n",
    "        img2_path (str): Path to the second image.\n",
    "    \n",
    "    Returns:\n",
    "        tuple: MSE and SSIM values.\n",
    "    \"\"\"\n",
    "    img1 = cv2.imread(img1_path, cv2.IMREAD_COLOR)\n",
    "    img2 = cv2.imread(img2_path, cv2.IMREAD_COLOR)\n",
    "\n",
    "    # Normalize ANd MSE\n",
    "    img1 = img1.astype(\"float32\") / 255.0\n",
    "    img2 = img2.astype(\"float32\") / 255.0\n",
    "    mse = np.mean((img1 - img2) ** 2)\n",
    "\n",
    "    # Compute SSIM (Similarity Index [0,1]\n",
    "    win_size = min(7, img1.shape[0], img1.shape[1])\n",
    "    ssim_value = ssim(img1, img2, channel_axis=-1, win_size=win_size, data_range=1.0)\n",
    "\n",
    "    return mse, ssim_value\n",
    "\n",
    "#compare all images in 2 folders\n",
    "def compare_datasets(original_dir, new_dir, output_report=\"comparison_report.txt\"):\n",
    "    \n",
    "    original_images = natsorted(\n",
    "        [f for f in os.listdir(original_dir) if f.endswith(\".png\") and \"resize\" not in f]\n",
    "    )\n",
    "    new_images = natsorted(\n",
    "        [f for f in os.listdir(new_dir) if f.endswith(\".png\")]\n",
    "    )\n",
    "\n",
    "    if len(original_images) != len(new_images):\n",
    "        print(f\"Warning: Number of images differ ({len(original_images)} vs {len(new_images)})\")\n",
    "\n",
    "    report = []\n",
    "    for orig_img, new_img in zip(original_images, new_images):\n",
    "        orig_path = os.path.join(original_dir, orig_img)\n",
    "        new_path = os.path.join(new_dir, new_img)\n",
    "        \n",
    "        try:\n",
    "            mse, ssim_value = compare_images(orig_path, new_path)\n",
    "            report.append(f\"{orig_img} vs {new_img}: MSE={mse:.2f}, SSIM={ssim_value:.4f}\")\n",
    "        except ValueError as e:\n",
    "            report.append(f\"{orig_img} vs {new_img}: ERROR - {str(e)}\")\n",
    "    \n",
    "    # Save the report\n",
    "    with open(output_report, \"w\") as f:\n",
    "        f.write(\"\\n\".join(report))\n",
    "    \n",
    "    print(f\"Comparison report saved to {output_report}\")\n"
   ]
  },
  {
   "cell_type": "markdown",
   "metadata": {},
   "source": [
    "MSE = Pixel by pixel difference\n",
    "SSIM: Structural Similarity Index (SSIM) measures the similarity between two images by comparing luminance, contrast, and structural differences, providing a score between 0 (no similarity) and 1 (identical). "
   ]
  },
  {
   "cell_type": "code",
   "execution_count": 18,
   "metadata": {},
   "outputs": [
    {
     "name": "stdout",
     "output_type": "stream",
     "text": [
      "Comparison report saved to image_comparison_H264_slow_report.txt\n"
     ]
    }
   ],
   "source": [
    "original_dir = \"/home/priyam/UTN/Cloud_Database/Project/robotics_dataset_compression/datasets/droid_100_sample_pictures\"\n",
    "new_dir1 = \"/home/priyam/UTN/Cloud_Database/Project/robotics_dataset_compression/research/extracted_frames_video_1\"\n",
    "compare_datasets(original_dir, new_dir1, output_report=\"image_comparison_H264_slow_report.txt\")\n"
   ]
  },
  {
   "cell_type": "code",
   "execution_count": 19,
   "metadata": {},
   "outputs": [
    {
     "name": "stdout",
     "output_type": "stream",
     "text": [
      "Comparison report saved to image_comparison_H264_fast_report.txt\n"
     ]
    }
   ],
   "source": [
    "original_dir = \"/home/priyam/UTN/Cloud_Database/Project/robotics_dataset_compression/datasets/droid_100_sample_pictures\"\n",
    "new_dir2 = \"/home/priyam/UTN/Cloud_Database/Project/robotics_dataset_compression/research/extracted_frames_video_2\"\n",
    "compare_datasets(original_dir, new_dir2, output_report=\"image_comparison_H264_fast_report.txt\")\n"
   ]
  },
  {
   "cell_type": "code",
   "execution_count": 21,
   "metadata": {},
   "outputs": [
    {
     "name": "stdout",
     "output_type": "stream",
     "text": [
      "Comparison report saved to image_comparison_H265_fast_report.txt\n"
     ]
    }
   ],
   "source": [
    "original_dir = \"/home/priyam/UTN/Cloud_Database/Project/robotics_dataset_compression/datasets/droid_100_sample_pictures\"\n",
    "new_dir3 = \"/home/priyam/UTN/Cloud_Database/Project/robotics_dataset_compression/research/extracted_frames_video_3\"\n",
    "compare_datasets(original_dir, new_dir3, output_report=\"image_comparison_H265_fast_report.txt\")\n"
   ]
  },
  {
   "cell_type": "code",
   "execution_count": 22,
   "metadata": {},
   "outputs": [
    {
     "name": "stdout",
     "output_type": "stream",
     "text": [
      "Comparison report saved to image_comparison_H265_slow_report.txt\n"
     ]
    }
   ],
   "source": [
    "original_dir = \"/home/priyam/UTN/Cloud_Database/Project/robotics_dataset_compression/datasets/droid_100_sample_pictures\"\n",
    "new_dir = \"/home/priyam/UTN/Cloud_Database/Project/robotics_dataset_compression/research/extracted_frames_video_4\"\n",
    "compare_datasets(original_dir, new_dir, output_report=\"image_comparison_H265_slow_report.txt\")\n"
   ]
  }
 ],
 "metadata": {
  "kernelspec": {
   "display_name": "utn",
   "language": "python",
   "name": "python3"
  },
  "language_info": {
   "codemirror_mode": {
    "name": "ipython",
    "version": 3
   },
   "file_extension": ".py",
   "mimetype": "text/x-python",
   "name": "python",
   "nbconvert_exporter": "python",
   "pygments_lexer": "ipython3",
   "version": "3.10.12"
  }
 },
 "nbformat": 4,
 "nbformat_minor": 2
}
